/* XPM */
static char *dummy[]={
"14 14 6 1",
"d c None",
"b c #000000",
". c #7d929e",
"c c #958174",
"# c #d3cbbe",
"a c #ffffff",
"..########aabb",
"..########aabb",
"##########aabb",
"##########aabb",
"##########aabb",
"##########aabb",
"aaaaaaaaaaaabb",
"aaaaaaaaaaaabb",
"ccccccccccccbb",
"ccccccccccccbb",
"bbbbbbbbbbbbbb",
"bbbbbbbbbbbbbb",
"dddddddddddddd",
"dddddddddddddd"};
