/* XPM */
static char *dummy[]={
"14 14 5 1",
"b c #000000",
". c #7d929e",
"c c #958174",
"# c #d3cbbe",
"a c #ffffff",
"..########aabb",
"..########aabb",
"##########aabb",
"##########aabb",
"##########aabb",
"##########aabb",
"aaaaaaaaaaaabb",
"aaaaaaaaaaaabb",
"ccccccccccccbb",
"ccccccccccccbb",
"ccccccccccccbb",
"ccccccccccccbb",
"bbbbbbbbbbbbbb",
"bbbbbbbbbbbbbb"};
