/* XPM */
static char *dummy[]={
"20 34 8 1",
". c #000000",
"c c #55646c",
"e c #645460",
"d c #7c7c7c",
"a c #7d929e",
"# c #adcade",
"f c #d3cbbe",
"b c #ffffff",
"....................",
"....................",
"####################",
"####################",
"aaaaaaaaaaaaaaaaaaaa",
"aaaaaaaaaaaaaaaaaaaa",
"aaa..............aaa",
"aaa..............aaa",
"a..##############..a",
"a..##############..a",
"a..##bbccccccbb##..a",
"a..##bbccccccbb##..a",
"a..##ccbbccbbcc##..a",
"a..##ccbbccbbcc##..a",
"a..##ccccbbcccc##..a",
"a..##ccccbbcccc##..a",
"a..##ccbbccbbcc##..a",
"a..##ccbbccbbcc##..a",
"a..##bbccccccbb##..a",
"a..##bbccccccbb##..a",
"a..##############..a",
"a..##############..a",
"a..dddddddddddddd..a",
"a..dddddddddddddd..a",
"aee..............eea",
"aee..............eea",
"aaaeeeeeeeeeeeeeeaaa",
"aaaeeeeeeeeeeeeeeaaa",
"ffffffffffffffffffff",
"ffffffffffffffffffff",
"ffffffffffffffffffff",
"ffffffffffffffffffff",
"....................",
"...................."};
