/* XPM */
static char *dummy[]={
"20 34 8 1",
". c #000000",
"e c #645460",
"d c #7c7c7c",
"a c #7d929e",
"# c #adcade",
"c c #c6c6c6",
"f c #d3cbbe",
"b c #ffffff",
"....................",
"....................",
"####################",
"####################",
"aaaaaaaaaaaaaaaaaaaa",
"aaaaaaaaaaaaaaaaaaaa",
"aaa..............aaa",
"aaa..............aaa",
"a..bbbbbbbbbbbbbb..a",
"a..bbbbbbbbbbbbbb..a",
"a..bb..cccccc..bb..a",
"a..bb..cccccc..bb..a",
"a..bbcc..cc..ccbb..a",
"a..bbcc..cc..ccbb..a",
"a..bbcccc..ccccbb..a",
"a..bbcccc..ccccbb..a",
"a..bbcc..cc..ccbb..a",
"a..bbcc..cc..ccbb..a",
"a..bb..cccccc..bb..a",
"a..bb..cccccc..bb..a",
"a..bbbbbbbbbbbbbb..a",
"a..bbbbbbbbbbbbbb..a",
"a..dddddddddddddd..a",
"a..dddddddddddddd..a",
"aee..............eea",
"aee..............eea",
"aaaeeeeeeeeeeeeeeaaa",
"aaaeeeeeeeeeeeeeeaaa",
"ffffffffffffffffffff",
"ffffffffffffffffffff",
"ffffffffffffffffffff",
"ffffffffffffffffffff",
"....................",
"...................."};
