/* XPM */
static char *dummy[]={
"20 34 7 1",
". c #000000",
"b c #55646c",
"d c #645460",
"c c #7c7c7c",
"a c #7d929e",
"# c #adcade",
"e c #d3cbbe",
"....................",
"....................",
"####################",
"####################",
"aaaaaaaaaaaaaaaaaaaa",
"aaaaaaaaaaaaaaaaaaaa",
"aaa..............aaa",
"aaa..............aaa",
"a..##############..a",
"a..##############..a",
"a..##bbbbbbbbbb##..a",
"a..##bbbbbbbbbb##..a",
"a..##bbbbbbbbbb##..a",
"a..##bbbbbbbbbb##..a",
"a..##..........##..a",
"a..##..........##..a",
"a..##bbbbbbbbbb##..a",
"a..##bbbbbbbbbb##..a",
"a..##bbbbbbbbbb##..a",
"a..##bbbbbbbbbb##..a",
"a..##############..a",
"a..##############..a",
"a..cccccccccccccc..a",
"a..cccccccccccccc..a",
"add..............dda",
"add..............dda",
"aaaddddddddddddddaaa",
"aaaddddddddddddddaaa",
"eeeeeeeeeeeeeeeeeeee",
"eeeeeeeeeeeeeeeeeeee",
"eeeeeeeeeeeeeeeeeeee",
"eeeeeeeeeeeeeeeeeeee",
"....................",
"...................."};
