/* XPM */
static char *dummy[]={
"14 21 3 1",
". c #000000",
"a c #d3cbbe",
"# c #ffffff",
"..##aaaaaaaa..",
"..##aaaaaaaa..",
"..##aaaaaaaa..",
"..##aaaaaaaa..",
"..##aaaaaaaa..",
"..##aaaaaaaa..",
"..##aaaaaaaa..",
"..##aaaaaaaa..",
"..##aaaaaaaa..",
"..##aaaaaaaa..",
"..##aaaaaaaa..",
"..##aaaaaaaa..",
"..##aaaaaaaa..",
"..##aaaaaaaa..",
"..##aaaaaaaa..",
"..##aaaaaaaa..",
"..##aaaaaaaa..",
"..##aaaaaaaa..",
"..##aaaaaaaa..",
"..##aaaaaaaa..",
"..##aaaaaaaa.."};
