/* XPM */
static char *dummy[]={
"14 21 3 1",
". c #000000",
"# c #d3cbbe",
"a c #ffffff",
"..########aa..",
"..########aa..",
"..########aa..",
"..########aa..",
"..########aa..",
"..########aa..",
"..########aa..",
"..########aa..",
"..########aa..",
"..########aa..",
"..########aa..",
"..########aa..",
"..########aa..",
"..########aa..",
"..########aa..",
"..########aa..",
"..########aa..",
"..########aa..",
"..########aa..",
"..########aa..",
"..########aa.."};
