/* XPM */
static char *dummy[]={
"2 34 3 1",
". c #000000",
"a c #d3cbbe",
"# c #ffffff",
"..",
"..",
"##",
"##",
"aa",
"aa",
"aa",
"aa",
"aa",
"aa",
"aa",
"aa",
"aa",
"aa",
"aa",
"aa",
"aa",
"aa",
"aa",
"aa",
"aa",
"aa",
"aa",
"aa",
"aa",
"aa",
"aa",
"aa",
"aa",
"aa",
"aa",
"aa",
"..",
".."};
