/* XPM */
static char *dummy[]={
"2 34 4 1",
". c #000000",
"a c #7d929e",
"# c #adcade",
"b c #d3cbbe",
"..",
"..",
"##",
"##",
"aa",
"aa",
"aa",
"aa",
"aa",
"aa",
"aa",
"aa",
"aa",
"aa",
"aa",
"aa",
"aa",
"aa",
"aa",
"aa",
"aa",
"aa",
"aa",
"aa",
"aa",
"aa",
"aa",
"aa",
"bb",
"bb",
"bb",
"bb",
"..",
".."};
