/* XPM */
static char *dummy[]={
"14 34 5 1",
". c #000000",
"a c #7d929e",
"# c #adcade",
"c c #d3cbbe",
"b c #ffffff",
"..............",
"..............",
"..############",
"..############",
"..##aaaaaaaaaa",
"..##aaaaaaaaaa",
"..##aaaaaaaaaa",
"..##aaaaaaaaaa",
"..##aaaaaaaaaa",
"..##aaaaaaaaaa",
"..##aaaaaaaaaa",
"..##aaaaaaaaaa",
"..##aaaaaaaaaa",
"..##aaaaaaaaaa",
"..##aaaaaaaaaa",
"..##aaaaaaaaaa",
"..##aaaaaaaaaa",
"..##aaaaaaaaaa",
"..##aaaaaaaaaa",
"..##aaaaaaaaaa",
"..##aaaaaaaaaa",
"..##aaaaaaaaaa",
"..##aaaaaaaaaa",
"..##aaaaaaaaaa",
"..##aaaaaaaaaa",
"..##aaaaaaaaaa",
"..##aaaaaaaaaa",
"..##aaaaaaaaaa",
"..bbcccccccccc",
"..bbcccccccccc",
"..bbcccccccccc",
"..bbcccccccccc",
"..bbccccccccaa",
"..bbccccccccaa"};
