/* XPM */
static char *dummy[]={
"14 34 5 1",
". c #000000",
"a c #7d929e",
"# c #adcade",
"b c #d3cbbe",
"c c #ffffff",
"..............",
"..............",
"############..",
"############..",
"aaaaaaaaaa##..",
"aaaaaaaaaa##..",
"aaaaaaaaaa##..",
"aaaaaaaaaa##..",
"aaaaaaaaaa##..",
"aaaaaaaaaa##..",
"aaaaaaaaaa##..",
"aaaaaaaaaa##..",
"aaaaaaaaaa##..",
"aaaaaaaaaa##..",
"aaaaaaaaaa##..",
"aaaaaaaaaa##..",
"aaaaaaaaaa##..",
"aaaaaaaaaa##..",
"aaaaaaaaaa##..",
"aaaaaaaaaa##..",
"aaaaaaaaaa##..",
"aaaaaaaaaa##..",
"aaaaaaaaaa##..",
"aaaaaaaaaa##..",
"aaaaaaaaaa##..",
"aaaaaaaaaa##..",
"aaaaaaaaaa##..",
"aaaaaaaaaa##..",
"bbbbbbbbbbcc..",
"bbbbbbbbbbcc..",
"bbbbbbbbbbcc..",
"bbbbbbbbbbcc..",
"aabbbbbbbbcc..",
"aabbbbbbbbcc.."};
